<?xml version="1.0" encoding="UTF-8" standalone="no"?>
<!-- Created with Inkscape (http://www.inkscape.org/) -->

<svg
   xmlns:dc="http://purl.org/dc/elements/1.1/"
   xmlns:cc="http://creativecommons.org/ns#"
   xmlns:rdf="http://www.w3.org/1999/02/22-rdf-syntax-ns#"
   xmlns:svg="http://www.w3.org/2000/svg"
   xmlns="http://www.w3.org/2000/svg"
   xmlns:xlink="http://www.w3.org/1999/xlink"
   xmlns:sodipodi="http://sodipodi.sourceforge.net/DTD/sodipodi-0.dtd"
   xmlns:inkscape="http://www.inkscape.org/namespaces/inkscape"
   width="210mm"
   height="297mm"
   viewBox="0 0 744.09448819 1052.3622047"
   id="svg2"
   version="1.1"
   inkscape:version="0.91 r13725"
   sodipodi:docname="crest.svg">
  <defs
     id="defs4" />
  <sodipodi:namedview
     id="base"
     pagecolor="#ffffff"
     bordercolor="#666666"
     borderopacity="1.0"
     inkscape:pageopacity="0.0"
     inkscape:pageshadow="2"
     inkscape:zoom="2"
     inkscape:cx="316.16622"
     inkscape:cy="855.85244"
     inkscape:document-units="px"
     inkscape:current-layer="layer2"
     showgrid="false"
     inkscape:window-width="1366"
     inkscape:window-height="744"
     inkscape:window-x="0"
     inkscape:window-y="24"
     inkscape:window-maximized="1"
     showguides="true"
     inkscape:guide-bbox="true">
    <sodipodi:guide
       position="383.60157,842.28127"
       orientation="0,1"
       id="guide4141" />
    <sodipodi:guide
       position="383.42188,842.08986"
       orientation="1,0"
       id="guide4143" />
  </sodipodi:namedview>
  <metadata
     id="metadata7">
    <rdf:RDF>
      <cc:Work
         rdf:about="">
        <dc:format>image/svg+xml</dc:format>
        <dc:type
           rdf:resource="http://purl.org/dc/dcmitype/StillImage" />
        <dc:title />
      </cc:Work>
    </rdf:RDF>
  </metadata>
  <g
     inkscape:groupmode="layer"
     id="layer2"
     inkscape:label="crest"
     style="display:inline">
    <path
       style="display:inline;opacity:1;fill:none;fill-opacity:1;stroke:#000000;stroke-width:0.1;stroke-miterlimit:4;stroke-dasharray:none;stroke-opacity:1"
       d="m 383.42334,186.63333 a 23.448635,23.448635 0 0 0 -23.4493,23.44922 23.448635,23.448635 0 0 0 23.4493,23.44726 23.448635,23.448635 0 0 0 23.4472,-23.44726 23.448635,23.448635 0 0 0 -23.4472,-23.44922 z m 0,3 a 20.448635,20.448635 0 0 1 20.4472,20.44922 20.448635,20.448635 0 0 1 -20.4472,20.44726 20.448635,20.448635 0 0 1 -20.4493,-20.44726 20.448635,20.448635 0 0 1 20.4493,-20.44922 z"
       id="circle4220"
       inkscape:connector-curvature="0" />
    <path
       style="display:inline;opacity:1;fill:none;fill-opacity:1;stroke:#000000;stroke-width:0.14305529;stroke-miterlimit:4;stroke-dasharray:none;stroke-opacity:1"
       d="m 383.42229,127.41441 a 82.428474,82.689713 0 0 0 -82.4277,82.69144 82.428474,82.689713 0 0 0 82.4277,82.68944 82.428474,82.689713 0 0 0 82.4277,-82.68944 82.428474,82.689713 0 0 0 -82.4277,-82.69144 z m -0.2813,4.7461 a 77.432693,77.943932 0 0 1 77.4336,77.94534 77.432693,77.943932 0 0 1 -77.4336,77.94335 77.432693,77.943932 0 0 1 -77.4335,-77.94335 77.432693,77.943932 0 0 1 77.4335,-77.94534 z"
       id="ellipse4227"
       inkscape:connector-curvature="0" />
    <path
       inkscape:connector-curvature="0"
       style="display:inline;opacity:1;fill:none;fill-rule:evenodd;stroke:#000000;stroke-width:0.09935287;stroke-linecap:butt;stroke-linejoin:miter;stroke-miterlimit:4;stroke-dasharray:none;stroke-opacity:1"
       d="m 383.36444,127.88 c -4.51499,4.65181 -22.07681,17.81792 -21.48437,46.80859 0.13331,6.5227 0.97966,11.79445 2.24804,16.11329 -4.32757,-1.27766 -9.61416,-2.12981 -16.16406,-2.26368 -28.99067,-0.59244 -42.15678,16.96939 -46.80859,21.48438 4.65181,4.51499 17.81792,22.07877 46.80859,21.48633 6.52269,-0.13332 11.79444,-0.97967 16.11328,-2.24805 -1.27765,4.32757 -2.13176,9.61416 -2.26562,16.16406 -0.59244,28.99067 16.97134,42.15679 21.48633,46.8086 4.51499,-4.65181 22.07681,-17.81793 21.48437,-46.8086 -0.13331,-6.52269 -0.97966,-11.79444 -2.24805,-16.11328 4.32759,1.27767 9.61411,2.1298 16.16407,2.26367 28.99067,0.59244 42.15678,-16.96938 46.80859,-21.48437 -4.65181,-4.51499 -17.81792,-22.07682 -46.80859,-21.48438 -6.52276,0.13332 -11.79442,0.97769 -16.11328,2.2461 1.27765,-4.32757 2.13175,-9.61416 2.26562,-16.16407 0.59244,-28.99067 -16.97134,-42.15678 -21.48633,-46.80859 z m 0,4.7207 c 4.24565,3.58872 18.57333,14.4636 18.625,43.57813 0.0122,6.78312 -1.17288,11.8802 -2.89258,15.875 -0.23037,0.0905 -0.47524,0.1746 -0.69921,0.26758 a 23.296892,23.296892 0 0 1 0.42578,0.375 c -2.5e-4,5.3e-4 2.4e-4,0.001 0,0.002 a 23.296892,23.296892 0 0 1 0.73632,0.64844 23.296892,23.296892 0 0 1 1.5586,1.67383 c 0.0916,-0.22011 0.17442,-0.46122 0.26367,-0.6875 3.98811,-1.70658 9.07352,-2.87917 15.82617,-2.86719 29.11452,0.0517 39.99137,14.37935 43.58008,18.625 -3.58871,4.24565 -14.46556,18.57333 -43.58008,18.625 -6.78256,0.0122 -11.87839,-1.17507 -15.87304,-2.89453 -0.0906,-0.23051 -0.17651,-0.47511 -0.26954,-0.69922 a 23.296892,23.296892 0 0 1 -0.375,0.42773 c -7.5e-4,-3.4e-4 -10e-4,-0.002 -0.002,-0.002 a 23.296892,23.296892 0 0 1 -0.64844,0.73828 23.296892,23.296892 0 0 1 -1.67187,1.55859 c 0.21983,0.0915 0.45956,0.17454 0.68554,0.26368 1.70668,3.98817 2.88112,9.07328 2.86915,15.82617 -0.0517,29.11452 -14.37935,39.98941 -18.625,43.57812 -4.24565,-3.58871 -18.57333,-14.4636 -18.625,-43.57812 -0.0122,-6.78219 1.17326,-11.87849 2.89257,-15.87305 0.2308,-0.0907 0.47484,-0.17639 0.69922,-0.26953 a 23.296892,23.296892 0 0 1 -0.42578,-0.375 c 0,0 0,-0.002 0,-0.002 a 23.296892,23.296892 0 0 1 -0.73633,-0.64844 23.296892,23.296892 0 0 1 -1.55859,-1.67383 c -0.0916,0.22011 -0.17443,0.46122 -0.26367,0.6875 -3.98811,1.70658 -9.07352,2.87917 -15.82617,2.86719 -29.11452,-0.0517 -39.99137,-14.37935 -43.58008,-18.625 3.58871,-4.24565 14.46556,-18.57333 43.58008,-18.625 6.78256,-0.0122 11.87838,1.17506 15.87304,2.89453 0.0906,0.23051 0.17651,0.47511 0.26953,0.69922 a 23.296892,23.296892 0 0 1 0.375,-0.42774 c 0,0 0.002,0.002 0.002,0.002 a 23.296892,23.296892 0 0 1 0.64843,-0.73828 23.296892,23.296892 0 0 1 1.67188,-1.5586 c -0.21983,-0.0915 -0.45956,-0.17453 -0.68555,-0.26367 -1.70644,-3.98803 -2.87916,-9.07384 -2.86719,-15.82617 0.0517,-29.11453 14.3774,-39.98941 18.62305,-43.57813 z"
       id="path4624" />
    <path
       id="path4149"
       d="m 441.46246,151.97249 c -6.48191,0.0968 -28.20983,-3.01149 -48.29041,17.90693 -4.51799,4.70651 -7.64722,9.03266 -9.80422,12.98342 -2.15661,-3.9635 -5.29223,-8.30424 -9.82905,-13.03038 -20.08058,-20.91842 -41.80852,-17.81017 -48.29042,-17.90692 0.0967,6.48191 -3.01288,28.21122 17.90554,48.2918 4.70651,4.51797 9.03266,7.6472 12.98342,9.8042 -3.96349,2.15662 -8.30562,5.29085 -13.03175,9.82768 -20.91842,20.08058 -17.8088,41.8099 -17.90555,48.29181 6.48191,-0.0967 28.20984,3.01148 48.29042,-17.90694 4.51798,-4.7065 7.64721,-9.03265 9.8042,-12.98342 2.15662,3.96352 5.29221,8.3042 9.82907,13.03038 20.08058,20.91842 41.80851,17.81018 48.29041,17.90693 -0.0967,-6.48191 3.0115,-28.20984 -17.90692,-48.29042 -4.70656,-4.51802 -9.03124,-7.64858 -12.98204,-9.80558 3.96349,-2.15662 8.30561,-5.29086 13.03176,-9.82769 20.91842,-20.08058 17.80879,-41.80989 17.90554,-48.2918 z m -3.33804,3.33805 c 0.46452,5.53973 2.90602,23.36063 -17.64453,43.98425 -4.78772,4.80505 -9.22992,7.57121 -13.27068,9.17995 -0.2269,-0.0989 -0.45951,-0.21258 -0.68362,-0.30521 a 23.296892,23.296892 0 0 1 0.0359,0.56624 c -5.5e-4,2e-4 -8.3e-4,0.001 -10e-4,0.001 a 23.296892,23.296892 0 0 1 0.0621,0.97917 23.296892,23.296892 0 0 1 -0.0815,2.28568 c 0.22042,-0.0909 0.44946,-0.2028 0.67257,-0.2997 4.02676,1.61329 8.45183,4.38007 13.21821,9.16339 20.55051,20.62363 18.11043,38.4459 17.6459,43.98563 -5.53973,0.46453 -23.36202,2.90463 -43.98563,-17.64591 -4.80465,-4.78734 -7.56839,-9.23019 -9.17719,-13.27067 0.099,-0.22704 0.21114,-0.46077 0.30383,-0.68502 a 23.296892,23.296892 0 0 1 -0.56762,0.0373 c -2.9e-4,-7.7e-4 2.9e-4,-0.002 0,-0.003 a 23.296892,23.296892 0 0 1 -0.98056,0.0635 23.296892,23.296892 0 0 1 -2.28428,-0.0801 c 0.0907,0.22016 0.20154,0.44838 0.2983,0.6712 -1.61326,4.02687 -4.37852,8.45304 -9.162,13.21959 -20.62363,20.55052 -38.44451,18.10905 -43.98424,17.64452 -0.46453,-5.53973 -2.90602,-23.36063 17.64452,-43.98425 4.78707,-4.80439 9.22898,-7.56974 13.26929,-9.17858 0.22732,0.0991 0.46049,0.21104 0.68501,0.30384 a 23.296892,23.296892 0 0 1 -0.0359,-0.56624 c 0,0 0.001,-0.001 0.001,-0.001 a 23.296892,23.296892 0 0 1 -0.0622,-0.97918 23.296892,23.296892 0 0 1 0.0815,-2.28567 c -0.22042,0.0909 -0.44947,0.20279 -0.67257,0.2997 -4.02676,-1.61329 -8.45183,-4.38007 -13.21821,-9.16339 -20.55051,-20.62363 -18.11043,-38.4459 -17.6459,-43.98563 5.53973,-0.46453 23.36202,-2.90463 43.98563,17.64591 4.80466,4.78733 7.56839,9.23017 9.17719,13.27067 -0.099,0.22703 -0.21114,0.46077 -0.30383,0.68501 a 23.296892,23.296892 0 0 1 0.56762,-0.0373 c 0,0 0,0.003 0,0.003 a 23.296892,23.296892 0 0 1 0.98055,-0.0635 23.296892,23.296892 0 0 1 2.2843,0.0801 c -0.0907,-0.22014 -0.20155,-0.44837 -0.29832,-0.6712 1.61333,-4.0266 4.3803,-8.45205 9.16339,-13.2182 20.62363,-20.55052 38.44314,-18.11043 43.98287,-17.6459 z"
       style="display:inline;opacity:1;fill:none;fill-rule:evenodd;stroke:#000000;stroke-width:0.09935287;stroke-linecap:butt;stroke-linejoin:miter;stroke-miterlimit:4;stroke-dasharray:none;stroke-opacity:1"
       inkscape:connector-curvature="0" />
  </g>
</svg>
