<?xml version="1.0" encoding="UTF-8" standalone="no"?>
<!-- Created with Inkscape (http://www.inkscape.org/) -->

<svg
   xmlns:dc="http://purl.org/dc/elements/1.1/"
   xmlns:cc="http://creativecommons.org/ns#"
   xmlns:rdf="http://www.w3.org/1999/02/22-rdf-syntax-ns#"
   xmlns:svg="http://www.w3.org/2000/svg"
   xmlns="http://www.w3.org/2000/svg"
   xmlns:xlink="http://www.w3.org/1999/xlink"
   xmlns:sodipodi="http://sodipodi.sourceforge.net/DTD/sodipodi-0.dtd"
   xmlns:inkscape="http://www.inkscape.org/namespaces/inkscape"
   width="210mm"
   height="297mm"
   viewBox="0 0 744.09448819 1052.3622047"
   id="svg2"
   version="1.1"
   inkscape:version="0.91 r13725"
   sodipodi:docname="crest.svg">
  <defs
     id="defs4" />
  <sodipodi:namedview
     id="base"
     pagecolor="#ffffff"
     bordercolor="#666666"
     borderopacity="1.0"
     inkscape:pageopacity="0.0"
     inkscape:pageshadow="2"
     inkscape:zoom="1.4142136"
     inkscape:cx="194.42111"
     inkscape:cy="787.76409"
     inkscape:document-units="px"
     inkscape:current-layer="layer1"
     showgrid="false"
     inkscape:window-width="1366"
     inkscape:window-height="744"
     inkscape:window-x="0"
     inkscape:window-y="24"
     inkscape:window-maximized="1"
     showguides="true"
     inkscape:guide-bbox="true">
    <sodipodi:guide
       position="383.60157,842.28127"
       orientation="0,1"
       id="guide4141" />
    <sodipodi:guide
       position="383.42188,842.08986"
       orientation="1,0"
       id="guide4143" />
  </sodipodi:namedview>
  <metadata
     id="metadata7">
    <rdf:RDF>
      <cc:Work
         rdf:about="">
        <dc:format>image/svg+xml</dc:format>
        <dc:type
           rdf:resource="http://purl.org/dc/dcmitype/StillImage" />
        <dc:title />
      </cc:Work>
    </rdf:RDF>
  </metadata>
  <g
     inkscape:groupmode="layer"
     id="layer2"
     inkscape:label="crest"
     style="display:inline">
    <path
       style="display:inline;opacity:1;fill:none;fill-opacity:1;stroke:#000000;stroke-width:0.1;stroke-miterlimit:4;stroke-dasharray:none;stroke-opacity:1"
       d="m 383.42334,186.63333 a 23.448635,23.448635 0 0 0 -23.4493,23.44922 23.448635,23.448635 0 0 0 23.4493,23.44726 23.448635,23.448635 0 0 0 23.4472,-23.44726 23.448635,23.448635 0 0 0 -23.4472,-23.44922 z m 0,3 a 20.448635,20.448635 0 0 1 20.4472,20.44922 20.448635,20.448635 0 0 1 -20.4472,20.44726 20.448635,20.448635 0 0 1 -20.4493,-20.44726 20.448635,20.448635 0 0 1 20.4493,-20.44922 z"
       id="circle4220"
       inkscape:connector-curvature="0" />
    <path
       style="display:inline;opacity:1;fill:none;fill-opacity:1;stroke:#000000;stroke-width:0.14305529;stroke-miterlimit:4;stroke-dasharray:none;stroke-opacity:1"
       d="m 383.42229,127.41441 a 82.428474,82.689713 0 0 0 -82.4277,82.69144 82.428474,82.689713 0 0 0 82.4277,82.68944 82.428474,82.689713 0 0 0 82.4277,-82.68944 82.428474,82.689713 0 0 0 -82.4277,-82.69144 z m -0.2813,4.7461 a 77.432693,77.943932 0 0 1 77.4336,77.94534 77.432693,77.943932 0 0 1 -77.4336,77.94335 77.432693,77.943932 0 0 1 -77.4335,-77.94335 77.432693,77.943932 0 0 1 77.4335,-77.94534 z"
       id="ellipse4227"
       inkscape:connector-curvature="0" />
    <path
       style="display:inline;opacity:1;fill:none;fill-rule:evenodd;stroke:#000000;stroke-width:0.09935287;stroke-linecap:butt;stroke-linejoin:miter;stroke-miterlimit:4;stroke-dasharray:none;stroke-opacity:1"
       d="m 383.36444,127.88 c -3.73193,3.84502 -16.369,13.51769 -20.30859,33.125 -16.6593,-11.09731 -32.44628,-9.00007 -37.80664,-9.08008 0.0799,5.35752 -2.01655,21.13335 9.06054,37.78321 -19.62697,3.93288 -29.30736,16.58066 -33.15429,20.31445 3.84487,3.73178 13.51724,16.36802 33.12304,20.30859 -11.09698,16.65963 -8.99811,32.45018 -9.07812,37.81055 5.35771,-0.0799 21.13108,2.01429 37.78125,-9.06445 3.93292,19.62823 16.5825,29.30919 20.31641,33.15625 3.73192,-3.84502 16.36899,-13.51769 20.30859,-33.125 16.65929,11.09731 32.44628,9.00006 37.80664,9.08007 -0.0799,-5.35771 2.01624,-21.13303 -9.0625,-37.7832 19.62824,-3.93245 29.30919,-16.58055 33.15625,-20.31445 -3.84502,-3.73193 -13.51769,-16.369 -33.125,-20.3086 11.09766,-16.65995 9.00007,-32.45008 9.08008,-37.81054 -5.35771,0.08 -21.13108,-2.01428 -37.78125,9.06445 -3.93292,-19.62823 -16.5825,-29.30919 -20.31641,-33.15625 z m 0,4.7207 c 3.53324,2.98654 14.04265,11.03009 17.50195,30.42188 -2.56794,1.93696 -5.1459,4.20164 -7.69531,6.85742 -4.51799,4.70651 -7.64573,9.03166 -9.80273,12.98242 -2.15661,-3.9635 -5.29326,-8.30315 -9.83008,-13.02929 -2.54114,-2.64718 -5.1083,-4.90703 -7.66797,-6.83985 3.4643,-19.3703 13.96271,-27.40757 17.49414,-30.39258 z m -48.4707,22.33203 c 6.45556,0.0629 16.27411,1.58548 27.57812,9.4668 -0.44613,3.18532 -0.66701,6.60862 -0.59179,10.28906 0.13331,6.5227 0.97966,11.79445 2.24804,16.11329 -4.32757,-1.27766 -9.61416,-2.12981 -16.16406,-2.26368 -3.6689,-0.075 -7.08294,0.14264 -10.25976,0.58594 -11.24609,-16.14645 -9.50552,-29.25365 -9.11914,-33.86133 1.38493,-0.11613 3.53648,-0.35709 6.30859,-0.33008 z m 96.92187,0.0488 c 2.77185,-0.027 4.92367,0.212 6.3086,0.32813 0.38658,4.61028 2.1301,17.72999 -9.13672,33.88867 -3.18532,-0.44613 -6.60862,-0.66701 -10.28906,-0.5918 -6.52276,0.13332 -11.79443,0.97769 -16.11328,2.2461 1.27764,-4.32757 2.13175,-9.61416 2.26562,-16.16407 0.075,-3.66815 -0.14276,-7.08153 -0.58594,-10.25781 11.29309,-7.86619 21.10057,-9.38634 27.55078,-9.44922 z m -66.48046,11.5254 c 2.3621,1.83825 4.77861,3.95138 7.23632,6.40038 4.80466,4.78733 7.56698,9.23099 9.17578,13.27149 -0.099,0.22703 -0.21004,0.46131 -0.30273,0.68555 a 23.296892,23.296892 0 0 1 0.56641,-0.0391 l 0,0.004 a 23.296892,23.296892 0 0 1 0.98046,-0.0644 23.296892,23.296892 0 0 1 2.28516,0.082 c -0.0907,-0.22014 -0.20206,-0.44905 -0.29883,-0.67188 1.61333,-4.0266 4.38098,-8.4526 9.16407,-13.21875 2.46522,-2.45648 4.8889,-4.57584 7.25781,-6.41796 0.37028,2.96956 0.58369,6.17172 0.58984,9.64062 0.0122,6.78312 -1.17288,11.8802 -2.89258,15.875 -0.23037,0.0905 -0.47525,0.1746 -0.69921,0.26758 a 23.296892,23.296892 0 0 1 0.42578,0.375 c 0,0 0,0.002 0,0.002 a 23.296892,23.296892 0 0 1 0.73632,0.64844 23.296892,23.296892 0 0 1 1.5586,1.67383 c 0.0916,-0.22011 0.17442,-0.46122 0.26367,-0.6875 3.98811,-1.70658 9.07352,-2.87917 15.82617,-2.86719 3.48092,0.006 6.69364,0.22106 9.67188,0.59375 -1.83798,2.36163 -3.95186,4.77713 -6.40039,7.23437 -4.78772,4.80505 -9.22878,7.5729 -13.26953,9.18164 -0.22691,-0.0989 -0.45949,-0.21401 -0.6836,-0.30664 a 23.296892,23.296892 0 0 1 0.0352,0.56641 c 0,0 -0.002,0.002 -0.002,0.002 a 23.296892,23.296892 0 0 1 0.0625,0.97852 23.296892,23.296892 0 0 1 -0.082,2.28515 c 0.22042,-0.0909 0.45072,-0.20192 0.67383,-0.29882 4.02676,1.61329 8.45237,4.37879 13.21875,9.16211 2.45723,2.46597 4.57545,4.89205 6.41797,7.26171 -2.97015,0.37043 -6.17294,0.58369 -9.64258,0.58985 -6.78256,0.0122 -11.87839,-1.17507 -15.87304,-2.89453 -0.0906,-0.23051 -0.17651,-0.47511 -0.26954,-0.69922 a 23.296892,23.296892 0 0 1 -0.375,0.42773 c 0,0 -0.002,-0.002 -0.002,-0.002 a 23.296892,23.296892 0 0 1 -0.64844,0.73828 23.296892,23.296892 0 0 1 -1.67187,1.55859 c 0.21983,0.0915 0.45956,0.17454 0.68554,0.26368 1.70669,3.98817 2.88112,9.07328 2.86915,15.82617 -0.006,3.48092 -0.22107,6.69368 -0.59375,9.67187 -2.36235,-1.83839 -4.77835,-3.95307 -7.23633,-6.40234 -4.80465,-4.78734 -7.56894,-9.22905 -9.17774,-13.26953 0.099,-0.22704 0.21005,-0.4613 0.30274,-0.68555 a 23.296892,23.296892 0 0 1 -0.56641,0.0371 c 0,0 0,-0.002 0,-0.002 a 23.296892,23.296892 0 0 1 -0.98047,0.0625 23.296892,23.296892 0 0 1 -2.28515,-0.0801 c 0.0907,0.22016 0.20206,0.44905 0.29882,0.67187 -1.61326,4.02687 -4.37862,8.4522 -9.1621,13.21875 -2.46591,2.45717 -4.89021,4.57748 -7.25977,6.41993 -0.37043,-2.9701 -0.58369,-6.17294 -0.58984,-9.64258 -0.0122,-6.78219 1.17326,-11.87849 2.89257,-15.87305 0.2308,-0.0907 0.47484,-0.17639 0.69922,-0.26953 a 23.296892,23.296892 0 0 1 -0.42578,-0.375 l 0,-0.002 a 23.296892,23.296892 0 0 1 -0.73633,-0.64844 23.296892,23.296892 0 0 1 -1.55859,-1.67383 c -0.0916,0.22011 -0.17443,0.46122 -0.26367,0.6875 -3.98811,1.70658 -9.07352,2.87917 -15.82617,2.86719 -3.48093,-0.006 -6.69364,-0.22106 -9.67188,-0.59375 1.83822,-2.36207 3.95139,-4.77861 6.40039,-7.23633 4.78707,-4.80439 9.22922,-7.56889 13.26953,-9.17773 0.22732,0.0991 0.46103,0.20993 0.68555,0.30273 a 23.296892,23.296892 0 0 1 -0.0371,-0.56445 l 0.002,-0.002 a 23.296892,23.296892 0 0 1 -0.0625,-0.97851 23.296892,23.296892 0 0 1 0.082,-2.28711 c -0.22042,0.0909 -0.45072,0.20387 -0.67382,0.30078 -4.02676,-1.61329 -8.45042,-4.38074 -13.2168,-9.16406 -2.45716,-2.46591 -4.57744,-4.89017 -6.41992,-7.25977 2.97015,-0.37042 6.17294,-0.58368 9.64258,-0.58984 6.78256,-0.0122 11.87838,1.17506 15.87304,2.89453 0.0906,0.23051 0.17651,0.47511 0.26953,0.69922 a 23.296892,23.296892 0 0 1 0.375,-0.42774 l 0.002,0.002 a 23.296892,23.296892 0 0 1 0.64843,-0.73828 23.296892,23.296892 0 0 1 1.67188,-1.5586 c -0.21983,-0.0915 -0.45956,-0.17453 -0.68555,-0.26367 -1.70644,-3.98803 -2.87916,-9.07384 -2.86719,-15.82617 0.006,-3.48092 0.22112,-6.69369 0.59376,-9.67187 z m -29.04102,26.01562 c 1.93729,2.56874 4.20281,5.14515 6.85937,7.69531 4.70651,4.51797 9.03362,7.64574 12.98438,9.80274 -3.96349,2.15662 -8.30707,5.29129 -13.0332,9.82812 -2.64762,2.54157 -4.9049,5.10979 -6.83789,7.66992 -19.36948,-3.46507 -27.40767,-13.96476 -30.39258,-17.49609 2.98632,-3.53299 11.03069,-14.03993 30.41992,-17.5 z m 94.10156,0.0723 c 19.36948,3.46508 27.40766,13.96477 30.39258,17.4961 -2.98642,3.5331 -11.03127,14.04028 -30.42188,17.5 -1.93711,-2.56826 -4.20327,-5.14364 -6.85937,-7.69336 -4.70656,-4.51802 -9.03162,-7.64769 -12.98242,-9.80469 3.96349,-2.15662 8.30705,-5.29129 13.0332,-9.82812 2.64761,-2.54157 4.9049,-5.10979 6.83789,-7.66993 z m -66.31836,36.66602 c -1.27765,4.32757 -2.13176,9.61416 -2.26562,16.16406 -0.075,3.66891 0.14258,7.08294 0.58594,10.25977 -16.14552,11.24475 -29.25183,9.50355 -33.85938,9.11719 -0.38657,-4.60999 -2.12969,-17.7275 9.13477,-33.88477 3.18586,0.44637 6.60982,0.66702 10.29101,0.5918 6.52269,-0.13332 11.79444,-0.97967 16.11328,-2.24805 z m 38.45703,0.0508 c 4.32759,1.27767 9.61411,2.1298 16.16407,2.26367 3.6689,0.075 7.08294,-0.14263 10.25976,-0.58593 11.24609,16.14644 9.50552,29.25365 9.11914,33.86132 -4.6101,0.38658 -17.7286,2.12896 -33.88672,-9.13671 0.44614,-3.18532 0.66701,-6.60862 0.5918,-10.28907 -0.13331,-6.52269 -0.97966,-11.79444 -2.24805,-16.11328 z m -19.24023,7.93945 c 2.15662,3.96352 5.29322,8.30312 9.83008,13.0293 2.54157,2.64761 5.10982,4.90681 7.66992,6.83984 -3.46473,19.3704 -13.96465,27.40757 -17.49609,30.39258 -3.53324,-2.98653 -14.04265,-11.03009 -17.50196,-30.42187 2.56795,-1.93696 5.1459,-4.20164 7.69531,-6.85742 4.51798,-4.7065 7.64575,-9.03166 9.80274,-12.98243 z"
       id="path4624"
       inkscape:connector-curvature="0" />
    <path
       inkscape:connector-curvature="0"
       style="display:inline;opacity:1;fill:none;fill-rule:evenodd;stroke:#000000;stroke-width:0.1;stroke-linecap:butt;stroke-linejoin:miter;stroke-miterlimit:4;stroke-dasharray:none;stroke-opacity:1"
       d="m 316.22186,196.87219 c 0.80259,-0.50282 1.73917,-0.9597 2.60938,-1.44141 -4.70708,-6.34893 -6.36343,-11.99529 -7.2207,-14.62695 2.51626,-1.31714 7.81835,-4.33155 15.97265,-5.52539 -0.28306,-0.94755 -0.59181,-1.90575 -0.8125,-2.82227 -9.57932,1.56467 -16.35754,5.2873 -19.53125,6.56836 1.34616,3.06788 3.49034,10.21859 8.98242,17.84766 z"
       id="path4449" />
    <path
       inkscape:connector-curvature="0"
       style="display:inline;opacity:1;fill:none;fill-rule:evenodd;stroke:#000000;stroke-width:0.1;stroke-linecap:butt;stroke-linejoin:miter;stroke-miterlimit:4;stroke-dasharray:none;stroke-opacity:1"
       d="m 326.55389,248.18859 c 0.21207,-0.9238 0.55127,-1.91044 0.82618,-2.86718 -7.81646,-1.1612 -12.97841,-3.97977 -15.44532,-5.23438 0.84784,-2.71037 2.46467,-8.59185 7.38477,-15.20117 -0.87047,-0.46997 -1.76594,-0.92973 -2.57031,-1.42187 -5.66786,7.88119 -7.82765,15.30686 -9.16602,18.45703 3.12126,1.21747 9.69287,4.75735 18.9707,6.26757 z"
       id="path4441" />
    <path
       inkscape:connector-curvature="0"
       style="display:inline;opacity:1;fill:none;fill-rule:evenodd;stroke:#000000;stroke-width:0.1;stroke-linecap:butt;stroke-linejoin:miter;stroke-miterlimit:4;stroke-dasharray:none;stroke-opacity:1"
       d="m 370.14765,277.16711 c -0.50335,-0.80329 -0.96118,-1.74029 -1.44336,-2.61133 -6.34845,4.70633 -11.99343,6.36346 -14.625,7.22071 -1.31713,-2.51624 -4.33292,-7.81697 -5.52735,-15.97071 -0.94662,0.2829 -1.90467,0.58991 -2.82031,0.81055 1.56481,9.58096 5.28716,16.3592 6.56836,19.5332 3.06798,-1.34622 10.21839,-3.48991 17.84766,-8.98242 z"
       id="path4433" />
    <path
       inkscape:connector-curvature="0"
       style="display:inline;opacity:1;fill:none;fill-rule:evenodd;stroke:#000000;stroke-width:0.1;stroke-linecap:butt;stroke-linejoin:miter;stroke-miterlimit:4;stroke-dasharray:none;stroke-opacity:1"
       d="m 421.4621,266.83313 c -0.92407,-0.21221 -1.91015,-0.55108 -2.86719,-0.82618 -1.16091,7.81726 -3.97972,12.98028 -5.23437,15.44727 -2.71045,-0.84785 -8.59159,-2.46402 -15.20118,-7.38477 -0.46969,0.86995 -0.92808,1.76639 -1.41992,2.57032 7.87922,5.66691 15.30128,7.82581 18.45117,9.16406 1.21747,-3.12125 4.76051,-9.69255 6.27149,-18.9707 z"
       id="path4425" />
    <path
       inkscape:connector-curvature="0"
       style="display:inline;opacity:1;fill:none;fill-rule:evenodd;stroke:#000000;stroke-width:0.1;stroke-linecap:butt;stroke-linejoin:miter;stroke-miterlimit:4;stroke-dasharray:none;stroke-opacity:1"
       d="m 450.44061,223.23938 c -0.80328,0.50328 -1.74029,0.96122 -2.61132,1.44335 4.7076,6.34932 6.36533,11.99517 7.22265,14.62696 -2.51616,1.31708 -7.81896,4.33154 -15.97265,5.52539 0.28285,0.94667 0.58996,1.90461 0.81054,2.82031 9.58075,-1.56429 16.35919,-5.28522 19.53321,-6.5664 -1.34622,-3.068 -3.48992,-10.22035 -8.98243,-17.84961 z"
       id="path4417" />
    <path
       inkscape:connector-curvature="0"
       style="display:inline;opacity:1;fill:none;fill-rule:evenodd;stroke:#000000;stroke-width:0.1;stroke-linecap:butt;stroke-linejoin:miter;stroke-miterlimit:4;stroke-dasharray:none;stroke-opacity:1"
       d="m 440.10663,171.92492 c -0.21645,0.94266 -0.55983,1.94888 -0.8418,2.92578 3.86175,0.5785 7.20575,1.48419 9.7461,2.49024 2.57723,1.02064 4.47997,2.05356 5.71875,2.68359 -0.84795,2.71073 -2.46505,8.59445 -7.38672,15.20508 0.86944,0.46942 1.76486,0.92838 2.56836,1.41992 5.66841,-7.881 7.82956,-15.3068 9.16797,-18.45703 -3.12147,-1.21752 -9.69386,-4.75751 -18.97266,-6.26758 z"
       id="path4409" />
    <path
       inkscape:connector-curvature="0"
       style="display:inline;opacity:1;fill:none;fill-rule:evenodd;stroke:#000000;stroke-width:0.1;stroke-linecap:butt;stroke-linejoin:miter;stroke-miterlimit:4;stroke-dasharray:none;stroke-opacity:1"
       d="m 396.51483,142.94641 c 0.50334,0.80328 0.96117,1.74029 1.44336,2.61132 6.3485,-4.7073 11.99325,-6.36338 14.625,-7.2207 1.31712,2.51624 4.33292,7.81696 5.52735,15.9707 0.94662,-0.28289 1.90467,-0.58991 2.82031,-0.81054 -1.56481,-9.58097 -5.28716,-16.35919 -6.56836,-19.53321 -3.06799,1.34623 -10.2184,3.48992 -17.84766,8.98243 z"
       id="path4401" />
    <path
       inkscape:connector-curvature="0"
       style="display:inline;opacity:1;fill:none;fill-rule:evenodd;stroke:#000000;stroke-width:0.1;stroke-linecap:butt;stroke-linejoin:miter;stroke-miterlimit:4;stroke-dasharray:none;stroke-opacity:1"
       d="m 369.92304,143.47375 c -7.87922,-5.66692 -15.30128,-7.82581 -18.45118,-9.16406 -1.21742,3.12113 -4.76003,9.69268 -6.27148,18.9707 0.92407,0.21221 1.91015,0.55107 2.86719,0.82617 1.1609,-7.81725 3.97971,-12.98026 5.23437,-15.44726 1.32641,0.41491 3.40971,1.00342 5.9668,2.07422 2.65312,1.11101 5.85131,2.87326 9.20508,5.36328 0.47879,-0.88922 0.94727,-1.80261 1.44922,-2.62305 z"
       id="path4385" />
  </g>
</svg>
