<?xml version="1.0" encoding="UTF-8" standalone="no"?>
<!-- Created with Inkscape (http://www.inkscape.org/) -->

<svg
   xmlns:dc="http://purl.org/dc/elements/1.1/"
   xmlns:cc="http://creativecommons.org/ns#"
   xmlns:rdf="http://www.w3.org/1999/02/22-rdf-syntax-ns#"
   xmlns:svg="http://www.w3.org/2000/svg"
   xmlns="http://www.w3.org/2000/svg"
   xmlns:xlink="http://www.w3.org/1999/xlink"
   xmlns:sodipodi="http://sodipodi.sourceforge.net/DTD/sodipodi-0.dtd"
   xmlns:inkscape="http://www.inkscape.org/namespaces/inkscape"
   width="210mm"
   height="297mm"
   viewBox="0 0 744.09448819 1052.3622047"
   id="svg2"
   version="1.1"
   inkscape:version="0.91 r13725"
   sodipodi:docname="crest.svg">
  <defs
     id="defs4" />
  <sodipodi:namedview
     id="base"
     pagecolor="#ffffff"
     bordercolor="#666666"
     borderopacity="1.0"
     inkscape:pageopacity="0.0"
     inkscape:pageshadow="2"
     inkscape:zoom="0.9899495"
     inkscape:cx="201.75708"
     inkscape:cy="808.72321"
     inkscape:document-units="px"
     inkscape:current-layer="layer1"
     showgrid="false"
     inkscape:window-width="1366"
     inkscape:window-height="744"
     inkscape:window-x="0"
     inkscape:window-y="24"
     inkscape:window-maximized="1"
     showguides="true"
     inkscape:guide-bbox="true">
    <sodipodi:guide
       position="383.60157,842.28127"
       orientation="0,1"
       id="guide4141" />
    <sodipodi:guide
       position="383.42188,842.08986"
       orientation="1,0"
       id="guide4143" />
  </sodipodi:namedview>
  <metadata
     id="metadata7">
    <rdf:RDF>
      <cc:Work
         rdf:about="">
        <dc:format>image/svg+xml</dc:format>
        <dc:type
           rdf:resource="http://purl.org/dc/dcmitype/StillImage" />
        <dc:title />
      </cc:Work>
    </rdf:RDF>
  </metadata>
  <g
     inkscape:groupmode="layer"
     id="layer2"
     inkscape:label="crest"
     style="display:inline">
    <path
       style="display:inline;opacity:1;fill:none;fill-opacity:1;stroke:#000000;stroke-width:0.1;stroke-miterlimit:4;stroke-dasharray:none;stroke-opacity:1"
       d="m 383.42334,186.63333 a 23.448635,23.448635 0 0 0 -23.4493,23.44922 23.448635,23.448635 0 0 0 23.4493,23.44726 23.448635,23.448635 0 0 0 23.4472,-23.44726 23.448635,23.448635 0 0 0 -23.4472,-23.44922 z m 0,3 a 20.448635,20.448635 0 0 1 20.4472,20.44922 20.448635,20.448635 0 0 1 -20.4472,20.44726 20.448635,20.448635 0 0 1 -20.4493,-20.44726 20.448635,20.448635 0 0 1 20.4493,-20.44922 z"
       id="circle4220"
       inkscape:connector-curvature="0" />
    <path
       style="display:inline;opacity:1;fill:none;fill-opacity:1;stroke:#000000;stroke-width:0.14305529;stroke-miterlimit:4;stroke-dasharray:none;stroke-opacity:1"
       d="m 383.42229,127.41441 a 82.428474,82.689713 0 0 0 -82.4277,82.69144 82.428474,82.689713 0 0 0 82.4277,82.68944 82.428474,82.689713 0 0 0 82.4277,-82.68944 82.428474,82.689713 0 0 0 -82.4277,-82.69144 z m -0.2813,4.7461 a 77.432693,77.943932 0 0 1 77.4336,77.94534 77.432693,77.943932 0 0 1 -77.4336,77.94335 77.432693,77.943932 0 0 1 -77.4335,-77.94335 77.432693,77.943932 0 0 1 77.4335,-77.94534 z"
       id="ellipse4227"
       inkscape:connector-curvature="0" />
  </g>
</svg>
