<?xml version="1.0" encoding="UTF-8" standalone="no"?>
<!-- Created with Inkscape (http://www.inkscape.org/) -->

<svg
   xmlns:dc="http://purl.org/dc/elements/1.1/"
   xmlns:cc="http://creativecommons.org/ns#"
   xmlns:rdf="http://www.w3.org/1999/02/22-rdf-syntax-ns#"
   xmlns:svg="http://www.w3.org/2000/svg"
   xmlns="http://www.w3.org/2000/svg"
   xmlns:xlink="http://www.w3.org/1999/xlink"
   xmlns:sodipodi="http://sodipodi.sourceforge.net/DTD/sodipodi-0.dtd"
   xmlns:inkscape="http://www.inkscape.org/namespaces/inkscape"
   width="210mm"
   height="297mm"
   viewBox="0 0 744.09448819 1052.3622047"
   id="svg2"
   version="1.1"
   inkscape:version="0.48.4 r9939"
   sodipodi:docname="crest.svg">
  <defs
     id="defs4">
    <inkscape:path-effect
       effect="interpolate"
       id="path-effect3806"
       is_visible="true"
       trajectory="M 0,0 0,0"
       equidistant_spacing="true"
       steps="5" />
    <inkscape:path-effect
       effect="gears"
       id="path-effect3804"
       is_visible="true"
       teeth="10"
       phi="5" />
  </defs>
  <sodipodi:namedview
     id="base"
     pagecolor="#ffffff"
     bordercolor="#666666"
     borderopacity="1.0"
     inkscape:pageopacity="0.0"
     inkscape:pageshadow="2"
     inkscape:zoom="0.70710678"
     inkscape:cx="404.9469"
     inkscape:cy="155.82537"
     inkscape:document-units="px"
     inkscape:current-layer="layer2"
     showgrid="false"
     inkscape:window-width="1366"
     inkscape:window-height="744"
     inkscape:window-x="0"
     inkscape:window-y="24"
     inkscape:window-maximized="1"
     showguides="true"
     inkscape:guide-bbox="true">
    <sodipodi:guide
       position="383.60157,842.28127"
       orientation="0,1"
       id="guide4141" />
    <sodipodi:guide
       position="383.42188,842.08986"
       orientation="1,0"
       id="guide4143" />
  </sodipodi:namedview>
  <metadata
     id="metadata7">
    <rdf:RDF>
      <cc:Work
         rdf:about="">
        <dc:format>image/svg+xml</dc:format>
        <dc:type
           rdf:resource="http://purl.org/dc/dcmitype/StillImage" />
        <dc:title />
      </cc:Work>
    </rdf:RDF>
  </metadata>
  <g
     inkscape:groupmode="layer"
     id="layer2"
     inkscape:label="crest"
     style="display:inline">
    <path
       style="fill:none;stroke:#000000;stroke-width:0.1;stroke-linecap:butt;stroke-linejoin:miter;stroke-miterlimit:4;stroke-opacity:1;stroke-dasharray:none"
       d="m 287.46875,351.46875 c 0,0 -19.44561,6.57991 -29.875,39.96875 -7.40755,23.71466 -4.0625,74.4375 -4.0625,74.4375 0,0 -17.07057,1.4586 -23,13.4375 0,0 -3.27546,9.02821 3.1875,21.90625 -2.88404,2.13456 -6.32807,2.04822 -8.3125,7.78125 0.13106,2.66416 -0.15635,5.22014 6.4375,9.5 9.37977,0.16322 15.32965,-3.33342 15.40625,-17.125 0.14709,-4.57482 -1.56979,-8.27342 -1.3125,-11.28125 0.25729,-3.00784 1.58542,-5.16999 5.09375,-5.84375 -0.74245,3.49804 -3.11659,7.23026 3.1875,11.3125 -3.04571,5.12913 -1.25806,8.26047 1.28125,11.0625 -2.51707,1.47524 -5.10084,1.955 -7.28125,8.03125 l 7.3125,5.375 -5.71875,5.75 9.96875,6.375 2.625,6.34375 2.8125,-6.625 9.1875,-5.0625 -4.09375,-6.59375 0.0625,-0.59375 5.25,-0.40625 2.1875,-7.375 c 2.40345,0.53755 4.56404,3.89245 6.96875,8.5625 7.28513,11.5209 6.2484,6.35273 11.53125,13.5625 3.60934,6.62785 1.61148,12.47804 2.1875,18.6875 l 20.40625,-11.5 c 0.0417,-0.0209 0.0208,0.0208 0.0312,0.0312 5.52559,7.14885 28.27874,25.21517 34.65625,24.75 0,0 -0.57082,5.62131 -4.9375,11.3125 -2.37073,3.08981 -12.98547,5.52577 -14.96875,13.96875 -1.99641,8.49885 4.46875,14.46875 4.46875,14.46875 0.9404,-6.61399 4.50264,-7.99993 8.40625,-8.6875 1.14408,3.56265 3.62856,5.98173 7.71875,7.1875 -1.28306,-5.45466 1.43238,-8.01214 4.21875,-6.90625 4.43488,1.76017 5.47513,3.3474 12.65625,0 0,0 -3.7637,-3.71559 -3.5,-5.625 0.49846,-3.60937 11.34375,-6.4375 11.34375,-6.4375 -0.0763,-0.77875 0.82271,-4.70933 -1.84375,-6.8125 -1.69549,-0.85901 -4.87042,-1.50361 -5.0625,-2.625 -1.53458,-6.10766 6.78116,-15.5713 11.3125,-16.53125 3.30285,-0.47363 5.99184,2.65404 7.625,2.375 8.9803,-1.53438 29.34375,-15.84375 29.34375,-15.84375 l -0.0937,0 0.0937,-0.0312 0.0937,-0.125 -0.0625,0.125 c 11.73251,-7.55933 22.29238,-19.55245 27.5,-25.78125 l 0.0625,0 c -0.005,0.48308 0.0155,10.28161 9.71875,27.15625 7.68841,13.37073 2.48989,21.87703 -7.09375,27.5 -0.27359,0.16052 -7.14348,3.73638 -7.40625,7.84375 -0.27858,4.35452 1.00947,7.01419 2.46875,10.09375 1.71748,-1.30633 3.00309,-4.18147 5.3125,-4.59375 2.59032,-0.46243 7.6875,-0.96875 7.6875,-0.96875 0.2006,1.6247 0.0489,3.57086 3.1875,5.90625 1.13647,-1.32081 2.63702,-6.47532 8.0625,-5.5625 2.2108,3.41223 5.13289,3.74431 7.90625,4.34375 -0.20257,-0.48618 0.17594,-7.43073 3.09375,-9.90625 4.27503,-3.62702 9.5953,-3.71875 9.6875,-3.71875 l -0.0312,-2.90625 c -1.61763,-1.76798 -8.43947,-4.88032 -8.84375,-11.21875 -0.31495,-4.93794 8.41993,-10.21909 10.53125,-11.6875 -0.44522,0.29682 -9.09817,-14.28459 -9.8125,-22 -1.49376,-16.13391 7.77104,-25.05663 8.3125,-25.5625 l 0.0937,-0.0312 c -2.30955,9.08424 -0.14579,24.2747 4.90625,38.96875 3.94581,11.47652 3.74744,21.93686 -1,31.25 -3.58052,5.0647 -7.18223,7.6225 -8,11.5 -0.67751,3.23379 -1.92418,6.33906 2.46875,10.625 1.13306,-1.8449 3.42357,-2.83091 7.09375,-2.125 4.86487,0.93569 4.65913,-0.66566 6,-1.4375 1.21712,1.9007 2.94033,3.31757 5.4375,4.46875 0.67825,-2.59803 1.03338,-3.34986 3.125,-4.375 2.95016,-1.44592 2.05207,-0.86506 3.625,-2.28125 3.42206,2.88034 7.17476,1.3353 10.8125,1.25 -0.31725,-0.0804 -2.99913,-6.87215 2.3125,-8.28125 4.68203,-1.24208 6.875,-3.65625 6.875,-3.65625 -0.55476,-2.42986 -6.55016,-8.5783 -9.125,-8.84375 -2.97357,-0.30655 -6.54771,-2.27067 -5.96875,-4.75 0.31615,-2.64764 3.21509,-5.59508 6.84375,-9.21875 2.54768,-2.54419 4.25707,-5.45056 6.46875,-8.21875 -1.3539,-1.92448 -10.28217,-11.24037 0.15625,-27.375 7.71478,-11.92471 9.52751,-44.06624 9.28125,-44.3125 0,0 -0.73376,-13.45092 -3.53125,-19.40625 -5.50651,-11.72229 -11.0693,-16.59436 -11.25,-16.75 l -0.0625,-0.0937 c 0.3207,-0.63278 -0.80847,-15.29594 -4.59375,-22.28125 -9.88267,-18.23732 -28.04824,-14.72391 -29.6875,-15.53125 5.06038,-1.04477 10.10831,-2.19944 14.9375,-5.09375 0.93496,-0.38859 10.50079,-7.67758 4.15625,-16.3125 -2.48274,-3.37901 -14.19718,-2.3232 -11.96875,7.59375 -17.52013,0.19481 -34.4372,-0.83422 -51.5,-2.46875 -6.99492,-0.67008 -31.60681,1.63021 -30.75,18.5625 0.70059,13.84519 18.24823,19.76896 49.5,15.21875 10.08864,-1.46889 33.06967,-5.70486 41.84375,10.1875 l -0.0312,0 c 0,0 -8.54617,-5.76115 -23.6875,-5.5 -24.7805,0.42742 -70.73377,37.02547 -73.4375,36.6875 -0.92636,-9.05944 -3.53177,-8.55973 -5.875,-10.0625 3.1624,-10.34615 4.93793,-20.52089 -6.5,-29.0625 l 6.875,-7.4375 c -5.6875,-2.76435 -6.5,-2.05537 -9.75,-4 1.54973,-1.61922 3.13369,-3.23159 5.5,-4.6875 1.79093,-1.1019 8.61314,-4.61207 12,-9.3125 -11.3715,-8.23341 -23.14303,-14.11779 -44.125,-13.625 l -0.78125,-5.25 c -3.39902,1.26553 -6.86932,2.77683 -10.59375,3.5 -5.96086,-1.01517 -10.55678,-2.44684 -17.125,-1.8125 -5.24055,0.50612 -14.26577,4.11736 -16.59375,7 -0.9094,1.12608 -1.62132,2.3233 -3.40625,2.375 -2.37746,0.0689 -4.32081,-0.96352 -6.875,-1.9375 -1.98199,-0.75579 -9.69376,0.61779 -13.0625,3.1875 -2.43454,1.8571 -2.84001,8.19529 0.71875,14.3125 l -4.46875,11.875 7.65625,0.0625 2.03125,5.4375 4.28125,-1.0625 1.71875,6.34375 c -4.10416,0.76094 -8.10439,-0.24466 -12.4375,-1.4375 -4.66466,-1.28411 -9.47558,-2.73062 -13.75,0.53125 -3.40846,2.53699 -4.628,7.14505 -4.625,14.3125 4.42664,-0.24406 4.87666,-3.22123 9.625,-3.375 4.75416,0.41389 6.58283,4.43502 12.5625,6.625 4.25806,1.55947 9.67427,2.20305 15.875,2.5625 1.2873,0.30514 2.79018,-0.13109 3.53125,2.03125 -2.51836,4.51019 -6.68425,6.8439 -4.53125,17.84375 0,0 -12.74289,9.0343 -4.25,26.5 l -4.2187,6.78115 0.0625,-0.0312 -0.0625,0.0625 0,-0.0312 c 0,0 -9.87607,-0.28514 -14.96875,-6.3125 -4.46317,-5.2823 -8.25667,-15.52417 -11.53125,-17.78125 5.69541,-10.13745 -8.98389,-13.17195 -9.59375,-12.71875 -1.54014,-34.36034 -3.59815,-69.2539 12.0625,-112.59375 z"
       transform="translate(-4.9229925e-6,0)"
       id="path4142"
       inkscape:connector-curvature="0"
       sodipodi:nodetypes="csccccccsccccccccccccccccccccsscccscsccccscccccccssscsccccsccscsccscccsccsccscscscscsccsccscsssccscccccsccccsscssccccccscccsccccccccsccc" />
    <path
       style="fill:none;stroke:#000000;stroke-width:0.1;stroke-miterlimit:4;stroke-opacity:1;stroke-dasharray:none"
       d="M 134.48046,622.15124 C 101.7139,600.14438 68.832195,575.24683 65.306492,508.14004 59.903026,405.29267 176.95155,354.3457 222.14062,308.84265 c -17.2377,-11.61855 -27.69777,-27.18205 -20.28163,-47.2044 5.31276,-14.34357 16.45569,-30.36314 37.02381,-31.55732 12.4116,-0.72062 25.1522,6.31967 28.21641,10.20524 5.03926,20.42834 16.43003,36.95462 18.75961,39.89621 -2.55916,75.55582 -54.535,59.68325 -109.01944,145.07397 -38.66017,60.59013 -20.71616,156.04526 59.00436,195.13317 z"
       id="path2992"
       inkscape:connector-curvature="0"
       sodipodi:nodetypes="cscscccscc" />
    <path
       sodipodi:type="arc"
       style="color:#000000;fill:none;stroke:none;stroke-width:0.1;marker:none;visibility:visible;display:inline;overflow:visible;enable-background:accumulate"
       id="path3762"
       sodipodi:cx="166.5"
       sodipodi:cy="255.86218"
       sodipodi:rx="45.5"
       sodipodi:ry="45.5"
       d="m 212,255.86218 a 45.5,45.5 0 1 1 -91,0 45.5,45.5 0 1 1 91,0 z"
       transform="translate(-4.9229925e-6,0)" />
    <g
       transform="translate(943.47577,68.10461)"
       id="g3764">
      <path
         style="fill:none;stroke:#000000;stroke-width:0.1;stroke-miterlimit:4;stroke-opacity:1;stroke-dasharray:none"
         d="m -560.05273,29.5 a 112.5,112.5 0 0 0 -112.5,112.5 112.5,112.5 0 0 0 112.5,112.5 112.5,112.5 0 0 0 112.5,-112.5 112.5,112.5 0 0 0 -112.5,-112.5 z m 0,2.5 a 110,110 0 0 1 110,110 110,110 0 0 1 -110,110 110,110 0 0 1 -110,-110 110,110 0 0 1 110,-110 z"
         id="path3766"
         inkscape:connector-curvature="0" />
      <path
         style="fill:none;stroke:#000000;stroke-width:0.14305529;stroke-miterlimit:4;stroke-opacity:1;stroke-dasharray:none;display:inline"
         d="m -560.05273,59.310547 a 82.428474,82.689713 0 0 0 -82.42774,82.691403 82.428474,82.689713 0 0 0 82.42774,82.68946 82.428474,82.689713 0 0 0 82.42773,-82.68946 82.428474,82.689713 0 0 0 -82.42773,-82.691403 z"
         id="path3768"
         inkscape:connector-curvature="0" />
      <path
         style="fill:none;stroke:#000000;stroke-width:0.1;stroke-miterlimit:4;stroke-opacity:1;stroke-dasharray:none;display:inline"
         d="m -560.05273,59.310547 a 82.428474,82.689713 0 0 0 -82.42774,82.691403 82.428474,82.689713 0 0 0 82.42774,82.68946 82.428474,82.689713 0 0 0 82.42773,-82.68946 82.428474,82.689713 0 0 0 -82.42773,-82.691403 z m -4.62891,4.900391 c -2.68692,2.6995 -5.9373,6.328168 -8.88477,11.148437 -4.55631,-3.274853 -8.93018,-5.355415 -12.4414,-6.804687 a 77.432693,77.943932 0 0 1 21.32617,-4.34375 z m 9.23828,0.0918 a 77.432693,77.943932 0 0 1 20.18164,4.039063 c -3.33826,1.423366 -7.42911,3.425837 -11.69922,6.5 -2.83057,-4.517409 -5.90656,-7.948444 -8.48242,-10.539063 z m -4.66797,0.19336 c 3.53324,2.986535 14.04267,11.030091 17.50195,30.421875 -2.56794,1.936958 -5.1459,4.20164 -7.69531,6.857417 -4.51799,4.70651 -7.64573,9.03166 -9.80273,12.98242 -2.15661,-3.9635 -5.29326,-8.30315 -9.83008,-13.02929 -2.54114,-2.647179 -5.1083,-4.907024 -7.66797,-6.839844 3.4643,-19.370302 13.96271,-27.407567 17.49414,-30.392578 z m 29.21875,5.736328 c 1.31369,2.509674 4.31681,7.79057 5.51758,15.908203 -4.56132,1.367657 -9.44832,3.483001 -14.41992,6.791016 -1.22083,-6.092836 -3.28301,-11.224521 -5.65625,-15.523438 6.32125,-4.669442 11.93609,-6.321477 14.55859,-7.175781 z m -59.28125,0.322266 c 1.32641,0.414912 3.40971,1.003419 5.9668,2.074218 2.63958,1.105345 5.81923,2.858204 9.1543,5.328125 -2.2466,4.181371 -4.19578,9.113249 -5.36719,14.94336 -5.17145,-3.444874 -10.25708,-5.614803 -14.97461,-6.976563 1.16831,-7.77169 3.9704,-12.910719 5.2207,-15.36914 z m 63.75195,1.482421 a 77.432693,77.943932 0 0 1 17.45704,11.740235 c -3.72084,0.03602 -8.36544,0.338743 -13.58399,1.597656 -0.88316,-5.396086 -2.44468,-9.86473 -3.87305,-13.337891 z m -68.09765,0.07617 c -1.37552,3.393175 -2.89361,7.769579 -3.75586,13.0625 -5.14039,-1.180486 -9.69906,-1.437421 -13.33399,-1.453125 a 77.432693,77.943932 0 0 1 17.08985,-11.609375 z m -14.0625,14.714844 c 6.45556,0.06292 16.27411,1.585473 27.57812,9.466797 -0.44613,3.185315 -0.66701,6.608616 -0.59179,10.289056 0.13331,6.5227 0.97966,11.79445 2.24804,16.11329 -4.32757,-1.27766 -9.61416,-2.12981 -16.16406,-2.26368 -3.6689,-0.075 -7.08294,0.14264 -10.25976,0.58594 -11.24609,-16.14645 -9.50553,-29.253648 -9.11914,-33.861325 1.38493,-0.116132 3.53648,-0.357096 6.30859,-0.330078 z m 96.92187,0.04883 c 2.77185,-0.02702 4.92367,0.211994 6.3086,0.328125 0.38658,4.610282 2.1301,17.729988 -9.13672,33.888668 -3.18532,-0.44613 -6.60862,-0.66701 -10.28906,-0.5918 -6.52276,0.13332 -11.79444,0.97769 -16.11328,2.2461 1.27764,-4.32757 2.13175,-9.61416 2.26562,-16.16407 0.075,-3.66815 -0.14276,-7.081526 -0.58594,-10.257804 11.29309,-7.866189 21.10057,-9.386344 27.55078,-9.449219 z m -106.66015,3.568359 c 0.0202,3.771969 0.30263,8.537977 1.59765,13.910154 -5.36668,0.87842 -9.8158,2.42732 -13.28125,3.84961 a 77.432693,77.943932 0 0 1 11.6836,-17.759764 z m 116.40234,0.539063 a 77.432693,77.943932 0 0 1 10.87305,16.292961 c -3.28474,-1.2915 -7.41195,-2.65758 -12.32422,-3.45703 1.12643,-4.905634 1.41289,-9.284131 1.45117,-12.835931 z m -76.22265,7.417969 c 2.3621,1.838252 4.77861,3.951382 7.23632,6.400382 4.80466,4.78733 7.56698,9.23099 9.17578,13.27149 -0.0796,0.18251 -0.16478,0.36788 -0.24414,0.55078 a 23.448635,23.448635 0 0 0 -13.28515,5.50977 c -0.19897,-0.0798 -0.4085,-0.15514 -0.60938,-0.23438 -1.70644,-3.98803 -2.87916,-9.07384 -2.86719,-15.82617 0.006,-3.48092 0.22112,-6.69369 0.59376,-9.671872 z m 36.06445,0.03125 c 0.37028,2.969562 0.58369,6.171722 0.58984,9.640622 0.0122,6.78312 -1.17288,11.8802 -2.89258,15.875 -0.1634,0.0642 -0.33073,0.12625 -0.49609,0.18945 a 23.448635,23.448635 0 0 0 -13.38477,-5.53515 c -0.0776,-0.17721 -0.16142,-0.35623 -0.23828,-0.53321 1.61333,-4.0266 4.38098,-8.4526 9.16407,-13.21875 2.46522,-2.45648 4.8889,-4.57584 7.25781,-6.417962 z m 37.9414,8.326172 c 3.8284,0.57897 7.14689,1.47737 9.66993,2.47656 2.41157,0.95503 4.17695,1.8929 5.41601,2.52929 a 77.432693,77.943932 0 0 1 0.20508,0.4629 c -0.86708,2.80361 -2.50703,8.45146 -7.25195,14.84375 -4.19255,-2.25874 -9.14321,-4.21815 -14.99805,-5.39454 3.43101,-5.15067 5.59618,-10.21607 6.95898,-14.91796 z m -111.82226,0.42382 c 1.36713,4.5617 3.48338,9.44826 6.79101,14.41993 -6.09348,1.22102 -11.22433,3.2847 -15.52343,5.6582 -4.66998,-6.32223 -6.32147,-11.9399 -7.17578,-14.5625 2.50949,-1.3136 7.7911,-4.31526 15.9082,-5.51563 z m 128.84765,9.76563 a 77.432693,77.943932 0 0 1 4.02344,19.79687 c -2.62403,-2.54917 -6.04263,-5.51064 -10.46875,-8.21679 3.01005,-4.188 5.01218,-8.22414 6.44531,-11.58008 z m -146.57421,0.28711 c 1.41953,3.30789 3.40737,7.33294 6.42968,11.53125 -4.35904,2.73093 -7.70489,5.69132 -10.26367,8.21094 a 77.432693,77.943932 0 0 1 3.83399,-19.74219 z m 73.63086,4.29297 a 20.448635,20.448635 0 0 1 20.44726,20.44922 20.448635,20.448635 0 0 1 -20.44726,20.44726 20.448635,20.448635 0 0 1 -20.44922,-20.44726 20.448635,20.448635 0 0 1 20.44922,-20.44922 z m -33.96875,1.76367 c 6.78256,-0.0122 11.87838,1.17506 15.87304,2.89453 0.0815,0.2073 0.15971,0.42396 0.24219,0.62891 a 23.448635,23.448635 0 0 0 -5.50195,13.21484 c -0.20379,0.0865 -0.41427,0.1864 -0.61914,0.27539 -4.02676,-1.61329 -8.45042,-4.38074 -13.2168,-9.16406 -2.45716,-2.46591 -4.57744,-4.89017 -6.41992,-7.25977 2.97015,-0.37042 6.17294,-0.58368 9.64258,-0.58984 z m 67.7539,0.0684 c 3.48092,0.006 6.69364,0.22106 9.67188,0.59375 -1.83798,2.36163 -3.95186,4.77713 -6.40039,7.23437 -4.78772,4.80505 -9.22878,7.5729 -13.26953,9.18164 -0.14271,-0.0622 -0.28602,-0.12796 -0.42969,-0.19336 a 23.448635,23.448635 0 0 0 -5.58008,-13.47461 c 0.0605,-0.15851 0.12004,-0.31844 0.18164,-0.4746 3.98811,-1.70658 9.07352,-2.87917 15.82617,-2.86719 z m -80.91406,1.05664 c 1.93729,2.56874 4.20281,5.14515 6.85937,7.69531 4.70651,4.51797 9.03362,7.64574 12.98438,9.80274 -3.96349,2.15662 -8.30707,5.29129 -13.0332,9.82812 -2.64762,2.54157 -4.9049,5.10979 -6.83789,7.66992 -19.36948,-3.46507 -27.40767,-13.96476 -30.39258,-17.49609 2.98632,-3.53299 11.03069,-14.03993 30.41992,-17.5 z m 94.10156,0.0723 c 18.97598,3.39469 27.04196,13.50112 30.16992,17.23243 a 77.432693,77.943932 0 0 1 0.01,0.27929 77.432693,77.943932 0 0 1 -0.0117,0.25196 c -3.13129,3.73545 -11.20515,13.8438 -30.19727,17.23242 -1.93709,-2.56826 -4.20327,-5.14364 -6.85937,-7.69336 -4.70656,-4.51802 -9.03162,-7.64769 -12.98242,-9.80469 3.96349,-2.15662 8.30705,-5.29129 13.0332,-9.82812 2.64761,-2.54157 4.9049,-5.10979 6.83789,-7.66993 z m -70.94336,19.04493 c 0.20344,0.0887 0.41078,0.18533 0.61328,0.27148 a 23.448635,23.448635 0 0 0 5.4375,13.29102 c -0.0751,0.19004 -0.14757,0.38774 -0.22265,0.57812 -3.98811,1.70658 -9.07352,2.87917 -15.82617,2.86719 -3.48093,-0.006 -6.69364,-0.22106 -9.67188,-0.59375 1.83822,-2.36207 3.95139,-4.77861 6.40039,-7.23633 4.78707,-4.80439 9.22922,-7.56889 13.26953,-9.17773 z m 47.76172,0.0625 c 4.02676,1.61329 8.45237,4.37879 13.21875,9.16211 2.45723,2.46597 4.57545,4.89205 6.41797,7.26171 -2.97015,0.37043 -6.17294,0.58369 -9.64258,0.58985 -6.78256,0.0122 -11.87839,-1.17507 -15.87304,-2.89453 -0.0582,-0.14817 -0.11634,-0.2986 -0.17383,-0.44922 a 23.448635,23.448635 0 0 0 5.63281,-13.48438 c 0.14041,-0.063 0.28097,-0.12519 0.41992,-0.18554 z m -101.33789,3.16992 c 2.67068,2.63226 6.20852,5.75908 10.86328,8.60547 -3.17829,4.42234 -5.22914,8.66985 -6.67383,12.1289 a 77.432693,77.943932 0 0 1 -4.18945,-20.73437 z m 154.43555,0.54687 a 77.432693,77.943932 0 0 1 -3.62891,18.91407 c -1.40713,-3.22309 -3.35465,-7.08288 -6.24219,-11.09375 4.13121,-2.58831 7.36435,-5.38914 9.8711,-7.82032 z m -12.43555,9.33008 c 4.55221,6.16328 6.22054,11.60895 7.09375,14.31055 a 77.432693,77.943932 0 0 1 -0.13086,0.36133 c -2.57428,1.35606 -7.75977,4.23074 -15.69726,5.40429 -1.36742,-4.56168 -3.4829,-9.44816 -6.79102,-14.41992 6.09389,-1.22089 11.22602,-3.28276 15.52539,-5.65625 z m -128.59375,0.1875 c 4.19197,2.25842 9.14241,4.218 14.99609,5.39453 -3.44478,5.17157 -5.61311,10.2585 -6.97461,14.97656 -7.772,-1.16841 -12.91059,-3.97034 -15.36914,-5.2207 0.84565,-2.70334 2.4574,-8.56199 7.34766,-15.15039 z m 48.86719,2.90039 a 23.448635,23.448635 0 0 0 13.31055,5.59766 c 0.0741,0.16776 0.15201,0.33673 0.2246,0.5039 -1.61326,4.02687 -4.37862,8.4522 -9.1621,13.21875 -2.46592,2.45717 -4.89021,4.57748 -7.25977,6.41993 -0.37043,-2.9701 -0.58369,-6.17294 -0.58984,-9.64258 -0.0122,-6.78219 1.17326,-11.87849 2.89257,-15.87305 0.19271,-0.0757 0.39197,-0.14861 0.58399,-0.22461 z m 30.46094,0.10156 c 0.14848,0.0565 0.29728,0.1123 0.44335,0.16993 1.70669,3.98817 2.88112,9.07328 2.86915,15.82617 -0.006,3.48092 -0.22107,6.69368 -0.59375,9.67187 -2.36235,-1.83839 -4.77835,-3.95307 -7.23633,-6.40234 -4.80465,-4.78734 -7.56894,-9.22905 -9.17774,-13.26953 0.0708,-0.1624 0.14479,-0.32676 0.2168,-0.49024 a 23.448635,23.448635 0 0 0 13.47852,-5.50586 z m -34.53321,1.32227 c -1.27765,4.32757 -2.13176,9.61416 -2.26562,16.16406 -0.075,3.66891 0.14257,7.08294 0.58594,10.25977 -16.14554,11.24475 -29.25183,9.50355 -33.85938,9.11719 -0.38657,-4.60999 -2.12969,-17.7275 9.13477,-33.88477 3.18586,0.44637 6.60982,0.66702 10.29101,0.5918 6.52269,-0.13332 11.79444,-0.97967 16.11328,-2.24805 z m 38.45703,0.0508 c 4.32759,1.27767 9.61411,2.1298 16.16407,2.26367 3.6689,0.075 7.08294,-0.14263 10.25976,-0.58593 11.24609,16.14644 9.50552,29.25365 9.11914,33.86132 -4.6101,0.38658 -17.7286,2.12896 -33.88672,-9.13671 0.44614,-3.18532 0.66701,-6.60862 0.5918,-10.28907 -0.13331,-6.52269 -0.97966,-11.79444 -2.24805,-16.11328 z m -19.24023,7.93945 c 2.15662,3.96352 5.29322,8.30312 9.83008,13.0293 2.54157,2.64761 5.10982,4.90681 7.66992,6.83984 -3.46473,19.3704 -13.96465,27.40757 -17.49609,30.39258 -3.53324,-2.98653 -14.04265,-11.03009 -17.50196,-30.42187 2.56795,-1.93696 5.14591,-4.20164 7.69531,-6.85742 4.51798,-4.7065 7.64575,-9.03166 9.80274,-12.98243 z m 69.48242,6.72071 a 77.432693,77.943932 0 0 1 -11.27344,17.27734 c -0.035,-3.72319 -0.33578,-8.37329 -1.5957,-13.59765 5.15339,-0.84319 9.46364,-2.30568 12.86914,-3.67969 z m -139.06055,0.55273 c 3.36251,1.3505 7.66087,2.82136 12.83789,3.66406 -1.18356,5.1558 -1.43926,9.72505 -1.45312,13.36524 a 77.432693,77.943932 0 0 1 -11.38477,-17.0293 z m 49.26563,14.55274 c 1.22082,6.09283 3.28301,11.22452 5.65625,15.52343 -6.3212,4.66849 -11.93627,6.32155 -14.55859,7.17579 -1.3137,-2.50969 -4.31682,-7.79058 -5.51758,-15.90821 4.56131,-1.36766 9.44832,-3.483 14.41992,-6.79101 z m 40.625,0.0312 c 5.17144,3.44487 10.25708,5.6148 14.97461,6.97656 -1.16832,7.77169 -3.97042,12.91073 -5.2207,15.36914 -2.70325,-0.8456 -8.56031,-2.4575 -15.14844,-7.34766 2.25873,-4.19254 4.21815,-9.1432 5.39453,-14.99804 z m -57.87109,7.52539 c 0.91308,5.57887 2.5515,10.17313 4.01757,13.6914 a 77.432693,77.943932 0 0 1 -18.08007,-12.08984 c 3.79427,-0.014 8.61821,-0.28819 14.0625,-1.60156 z m 75.72656,0.19922 c 5.01211,1.15102 9.47188,1.42517 13.0625,1.45312 a 77.432693,77.943932 0 0 1 -16.78125,11.51758 c 1.36584,-3.38083 2.86448,-7.7251 3.71875,-12.9707 z m -24.70899,9.8164 c 4.53876,3.26223 8.89587,5.3384 12.40039,6.78711 a 77.432693,77.943932 0 0 1 -21.37109,4.44727 c 2.70261,-2.7075 5.99246,-6.36377 8.9707,-11.23438 z m -26.60546,0.51758 c 2.87464,4.58774 6.00416,8.05674 8.60351,10.66016 a 77.432693,77.943932 0 0 1 -20.59961,-4.03321 c 3.38912,-1.42925 7.59886,-3.46127 11.9961,-6.62695 z"
         id="path3770"
         inkscape:connector-curvature="0" />
      <path
         style="fill:none;stroke:#000000;stroke-width:0.1;stroke-miterlimit:4;stroke-opacity:1;stroke-dasharray:none"
         d="M -560.12891,21.841797 A 120.1204,120.1204 0 0 0 -680.25,141.96289 120.1204,120.1204 0 0 0 -560.12891,262.08203 120.1204,120.1204 0 0 0 -440.00977,141.96289 120.1204,120.1204 0 0 0 -560.12891,21.841797 z m 0,2.75 A 117.3704,117.3704 0 0 1 -442.75977,141.96289 117.3704,117.3704 0 0 1 -560.12891,259.33203 117.3704,117.3704 0 0 1 -677.5,141.96289 117.3704,117.3704 0 0 1 -560.12891,24.591797 z"
         id="path3772"
         inkscape:connector-curvature="0" />
    </g>
    <path
       sodipodi:nodetypes="cscscccscc"
       inkscape:connector-curvature="0"
       id="path3812"
       d="m 632.36331,622.15124 c 32.76656,-22.00686 65.64826,-46.90441 69.17396,-114.0112 5.40347,-102.84737 -111.64505,-153.79434 -156.83412,-199.29739 17.2377,-11.61855 27.69777,-27.18205 20.28163,-47.2044 -5.31276,-14.34357 -16.45569,-30.36314 -37.02381,-31.55732 -12.4116,-0.72062 -25.28478,6.35282 -28.34899,10.23839 -4.99506,20.29575 -16.32507,36.83861 -18.65465,39.7802 2.55916,75.55582 54.56262,59.76611 109.04706,145.15683 38.66017,60.59013 20.71616,156.04526 -59.00436,195.13317 z"
       style="fill:none;stroke:#000000;stroke-width:0.1;stroke-miterlimit:4;stroke-opacity:1;stroke-dasharray:none"
       inkscape:transform-center-x="-207.92971"
       inkscape:transform-center-y="-16" />
    <path
       style="fill:none;stroke:#000000;stroke-width:0.1;stroke-linecap:butt;stroke-linejoin:miter;stroke-miterlimit:4;stroke-opacity:1;stroke-dasharray:none"
       d="m 134,620.375 c 0,0 -8.25,0.0488 -8.25,9.8125 0,9.76363 8.25,9.6875 8.25,9.6875 l 498.84375,0 c 0,0 8.25,0.0761 8.25,-9.6875 0,-9.76367 -8.25,-9.8125 -8.25,-9.8125 L 134,620.375 z"
       transform="translate(-4.9229925e-6,0)"
       id="path3005"
       inkscape:connector-curvature="0" />
    <path
       style="fill:none;stroke:#000000;stroke-width:0.1;stroke-linecap:butt;stroke-linejoin:miter;stroke-miterlimit:4;stroke-opacity:1;stroke-dasharray:none"
       d="m 134.28125,639.875 c -3.2627,10.53457 -1.36978,13.81252 8.5625,13.8125 l 481.15625,0 c 9.93228,2e-5 11.8252,-3.27793 8.5625,-13.8125 l -8.5625,0 -481.15625,0 -8.5625,0 z"
       id="path3783"
       inkscape:connector-curvature="0" />
    <path
       style="fill:none;stroke:#000000;stroke-width:0.1;stroke-linecap:butt;stroke-linejoin:miter;stroke-miterlimit:4;stroke-opacity:1;stroke-dasharray:none;display:inline"
       d="m 132.84375,646.78125 c -15.98386,6.89064 -16.38185,23.53147 -32.59375,33 l -0.0312,0 c -0.009,0.005 -0.0227,-0.005 -0.0312,0 0,0 -10.5625,0.003 -10.5625,8.84375 0,8.84089 7.03125,8.84375 7.03125,8.84375 l 573.53125,0 c 0,0 7.03125,-0.003 7.03125,-8.84375 0,-8.84089 -10.5625,-8.84375 -10.5625,-8.84375 l -0.0625,0 c -16.2119,-9.46853 -16.60989,-26.10936 -32.59375,-33 0.0341,0.75642 0.0161,1.47891 -0.0937,2.09375 -0.12619,0.70645 -0.36077,1.30967 -0.6875,1.84375 -0.32673,0.53408 -0.74271,0.99776 -1.28125,1.375 -0.53854,0.37724 -1.1759,0.6703 -1.9375,0.90625 -1.42834,0.44252 -3.3551,0.63215 -5.625,0.65625 l -0.0625,0.0312 c 20.36523,3.12654 14.64974,14.08286 30.28125,26.09375 l -542.34375,0 c 15.63151,-12.01089 9.91602,-22.96721 30.28125,-26.09375 l -0.0625,-0.0312 c -2.2699,-0.0241 -4.19666,-0.21373 -5.625,-0.65625 -0.7616,-0.23595 -1.39896,-0.52901 -1.9375,-0.90625 -0.53854,-0.37724 -0.95452,-0.84092 -1.28125,-1.375 -0.32673,-0.53408 -0.56131,-1.1373 -0.6875,-1.84375 -0.10983,-0.61484 -0.12784,-1.33733 -0.0937,-2.09375 z"
       transform="translate(-4.9229925e-6,0)"
       id="path3817"
       inkscape:connector-curvature="0" />
    <path
       style="fill:none;stroke:#000000;stroke-width:0.1;stroke-linecap:butt;stroke-linejoin:miter;stroke-miterlimit:4;stroke-opacity:1;stroke-dasharray:none;display:inline"
       d="M 140.15625 861.28125 L 151.90625 890.96875 L 247.9375 890.96875 L 247.9375 901.78125 C 247.9375 901.78125 241.65625 901.7458 241.65625 910.84375 C 241.65625 919.94174 247.9375 919.78125 247.9375 919.78125 L 294.03125 919.78125 L 294.15625 930.90625 C 294.15625 930.90625 287.84375 930.82919 287.84375 940 C 287.84375 949.17082 294.15625 949.1875 294.15625 949.1875 L 334.9375 949.1875 L 334.9375 961.1875 C 334.9375 961.1875 327.4375 961.25649 327.4375 970.375 C 327.4375 979.49354 334.9375 979.46875 334.9375 979.46875 L 383.4375 979.46875 L 383.53125 979.46875 L 432.03125 979.46875 C 432.03125 979.46875 439.53125 979.49354 439.53125 970.375 C 439.53125 961.25649 432.03125 961.1875 432.03125 961.1875 L 432.03125 949.1875 L 472.8125 949.1875 C 472.8125 949.1875 479.125 949.17082 479.125 940 C 479.125 930.82919 472.8125 930.90625 472.8125 930.90625 L 472.9375 919.78125 L 519.03125 919.78125 C 519.03125 919.78125 525.3125 919.94174 525.3125 910.84375 C 525.3125 901.7458 519.03125 901.78125 519.03125 901.78125 L 519.03125 890.96875 L 615.0625 890.96875 L 626.8125 861.28125 L 383.53125 861.28125 L 383.4375 861.28125 L 140.15625 861.28125 z "
       transform="translate(-4.9229925e-6,0)"
       id="path3033" />
  </g>
</svg>
