<?xml version="1.0" encoding="UTF-8" standalone="no"?>
<!-- Created with Inkscape (http://www.inkscape.org/) -->

<svg
   xmlns:dc="http://purl.org/dc/elements/1.1/"
   xmlns:cc="http://creativecommons.org/ns#"
   xmlns:rdf="http://www.w3.org/1999/02/22-rdf-syntax-ns#"
   xmlns:svg="http://www.w3.org/2000/svg"
   xmlns="http://www.w3.org/2000/svg"
   xmlns:xlink="http://www.w3.org/1999/xlink"
   xmlns:sodipodi="http://sodipodi.sourceforge.net/DTD/sodipodi-0.dtd"
   xmlns:inkscape="http://www.inkscape.org/namespaces/inkscape"
   width="210mm"
   height="297mm"
   viewBox="0 0 744.09448819 1052.3622047"
   id="svg2"
   version="1.1"
   inkscape:version="0.91 r13725"
   sodipodi:docname="crest.svg">
  <defs
     id="defs4" />
  <sodipodi:namedview
     id="base"
     pagecolor="#ffffff"
     bordercolor="#666666"
     borderopacity="1.0"
     inkscape:pageopacity="0.0"
     inkscape:pageshadow="2"
     inkscape:zoom="0.125"
     inkscape:cx="-144.91831"
     inkscape:cy="-40.970039"
     inkscape:document-units="px"
     inkscape:current-layer="layer1"
     showgrid="false"
     inkscape:window-width="1366"
     inkscape:window-height="744"
     inkscape:window-x="0"
     inkscape:window-y="24"
     inkscape:window-maximized="1"
     showguides="true"
     inkscape:guide-bbox="true">
    <sodipodi:guide
       position="383.60157,842.28127"
       orientation="0,1"
       id="guide4141" />
    <sodipodi:guide
       position="383.42188,842.08986"
       orientation="1,0"
       id="guide4143" />
  </sodipodi:namedview>
  <metadata
     id="metadata7">
    <rdf:RDF>
      <cc:Work
         rdf:about="">
        <dc:format>image/svg+xml</dc:format>
        <dc:type
           rdf:resource="http://purl.org/dc/dcmitype/StillImage" />
        <dc:title />
      </cc:Work>
    </rdf:RDF>
  </metadata>
  <g
     inkscape:groupmode="layer"
     id="layer2"
     inkscape:label="crest"
     style="display:inline;opacity:0.525">
    <path
       style="opacity:1;fill:none;fill-opacity:1;stroke:#000000;stroke-width:0.1;stroke-miterlimit:4;stroke-dasharray:none;stroke-opacity:1"
       d="m 383.42304,97.60461 a 112.5,112.5 0 0 0 -112.5,112.5 112.5,112.5 0 0 0 112.5,112.5 112.5,112.5 0 0 0 112.5,-112.5 112.5,112.5 0 0 0 -112.5,-112.5 z m 0,2.5 a 110,110 0 0 1 110,110 110,110 0 0 1 -110,110 110,110 0 0 1 -110,-110 110,110 0 0 1 110,-110 z"
       id="path4139"
       inkscape:connector-curvature="0" />
    <path
       style="display:inline;opacity:1;fill:none;fill-opacity:1;stroke:#000000;stroke-width:0.14305529;stroke-miterlimit:4;stroke-dasharray:none;stroke-opacity:1"
       d="m 383.42304,127.41516 a 82.428474,82.689713 0 0 0 -82.42774,82.6914 82.428474,82.689713 0 0 0 82.42774,82.68946 82.428474,82.689713 0 0 0 82.42773,-82.68946 82.428474,82.689713 0 0 0 -82.42773,-82.6914 z"
       id="path4140"
       inkscape:connector-curvature="0" />
    <path
       style="display:inline;opacity:1;fill:none;fill-opacity:1;stroke:#000000;stroke-width:0.1;stroke-miterlimit:4;stroke-dasharray:none;stroke-opacity:1"
       d="m 383.42304,127.41516 a 82.428474,82.689713 0 0 0 -82.42774,82.6914 82.428474,82.689713 0 0 0 82.42774,82.68946 82.428474,82.689713 0 0 0 82.42773,-82.68946 82.428474,82.689713 0 0 0 -82.42773,-82.6914 z m -4.62891,4.90039 c -2.68692,2.6995 -5.9373,6.32817 -8.88477,11.14843 -4.55631,-3.27485 -8.93018,-5.35541 -12.4414,-6.80468 a 77.432693,77.943932 0 0 1 21.32617,-4.34375 z m 9.23828,0.0918 a 77.432693,77.943932 0 0 1 20.18164,4.03906 c -3.33826,1.42337 -7.42911,3.42584 -11.69922,6.5 -2.83057,-4.51741 -5.90656,-7.94844 -8.48242,-10.53906 z m -4.66797,0.19336 c 3.53324,2.98653 14.04267,11.03009 17.50195,30.42187 -2.56794,1.93696 -5.1459,4.20164 -7.69531,6.85742 -4.51799,4.70651 -7.64573,9.03166 -9.80273,12.98242 -2.15661,-3.9635 -5.29326,-8.30315 -9.83008,-13.02929 -2.54114,-2.64718 -5.1083,-4.90702 -7.66797,-6.83984 3.4643,-19.37031 13.96271,-27.40757 17.49414,-30.39258 z m 29.21875,5.73633 c 1.31369,2.50967 4.31681,7.79057 5.51758,15.9082 -4.56132,1.36766 -9.44832,3.483 -14.41992,6.79101 -1.22083,-6.09283 -3.28301,-11.22452 -5.65625,-15.52343 6.32125,-4.66945 11.93609,-6.32148 14.55859,-7.17578 z m -59.28125,0.32226 c 1.32641,0.41491 3.40971,1.00342 5.9668,2.07422 2.63958,1.10534 5.81923,2.8582 9.1543,5.32812 -2.2466,4.18138 -4.19578,9.11325 -5.36719,14.94336 -5.17145,-3.44487 -10.25708,-5.6148 -14.97461,-6.97656 1.16831,-7.77169 3.9704,-12.91072 5.2207,-15.36914 z m 63.75195,1.48242 a 77.432693,77.943932 0 0 1 17.45704,11.74024 c -3.72084,0.036 -8.36544,0.33874 -13.58399,1.59765 -0.88316,-5.39608 -2.44468,-9.86473 -3.87305,-13.33789 z m -68.09765,0.0762 c -1.37552,3.39318 -2.89361,7.76958 -3.75586,13.0625 -5.14039,-1.18048 -9.69906,-1.43742 -13.33399,-1.45312 a 77.432693,77.943932 0 0 1 17.08985,-11.60938 z m -14.0625,14.71485 c 6.45556,0.0629 16.27411,1.58547 27.57812,9.46679 -0.44613,3.18532 -0.66701,6.60862 -0.59179,10.28906 0.13331,6.5227 0.97966,11.79445 2.24804,16.11329 -4.32757,-1.27766 -9.61416,-2.12981 -16.16406,-2.26368 -3.6689,-0.075 -7.08294,0.14264 -10.25976,0.58594 -11.24609,-16.14645 -9.50553,-29.25365 -9.11914,-33.86133 1.38493,-0.11613 3.53648,-0.35709 6.30859,-0.33007 z m 96.92187,0.0488 c 2.77185,-0.027 4.92367,0.21199 6.3086,0.32812 0.38658,4.61028 2.1301,17.72999 -9.13672,33.88867 -3.18532,-0.44613 -6.60862,-0.66701 -10.28906,-0.5918 -6.52276,0.13332 -11.79444,0.97769 -16.11328,2.2461 1.27764,-4.32757 2.13175,-9.61416 2.26562,-16.16407 0.075,-3.66815 -0.14276,-7.08153 -0.58594,-10.2578 11.29309,-7.86619 21.10057,-9.38635 27.55078,-9.44922 z m -106.66015,3.56836 c 0.0202,3.77196 0.30263,8.53797 1.59765,13.91015 -5.36668,0.87842 -9.8158,2.42732 -13.28125,3.84961 a 77.432693,77.943932 0 0 1 11.6836,-17.75976 z m 116.40234,0.53906 a 77.432693,77.943932 0 0 1 10.87305,16.29296 c -3.28474,-1.2915 -7.41195,-2.65758 -12.32422,-3.45703 1.12643,-4.90563 1.41289,-9.28413 1.45117,-12.83593 z m -76.22265,7.41797 c 2.3621,1.83825 4.77861,3.95138 7.23632,6.40038 4.80466,4.78733 7.56698,9.23099 9.17578,13.27149 -0.0796,0.18251 -0.16478,0.36788 -0.24414,0.55078 a 23.448635,23.448635 0 0 0 -13.28515,5.50977 c -0.19897,-0.0798 -0.4085,-0.15514 -0.60938,-0.23438 -1.70644,-3.98803 -2.87916,-9.07384 -2.86719,-15.82617 0.006,-3.48092 0.22112,-6.69369 0.59376,-9.67187 z m 36.06445,0.0312 c 0.37028,2.96956 0.58369,6.17172 0.58984,9.64062 0.0122,6.78312 -1.17288,11.8802 -2.89258,15.875 -0.1634,0.0642 -0.33073,0.12625 -0.49609,0.18945 A 23.448635,23.448635 0 0 0 385.216,186.70813 c -0.0776,-0.17721 -0.16142,-0.35623 -0.23828,-0.53321 1.61333,-4.0266 4.38098,-8.4526 9.16407,-13.21875 2.46522,-2.45648 4.8889,-4.57584 7.25781,-6.41796 z m 37.9414,8.32617 c 3.8284,0.57897 7.14689,1.47737 9.66993,2.47656 2.41157,0.95503 4.17695,1.8929 5.41601,2.52929 a 77.432693,77.943932 0 0 1 0.20508,0.4629 c -0.86708,2.80361 -2.50703,8.45146 -7.25195,14.84375 -4.19255,-2.25874 -9.14321,-4.21815 -14.99805,-5.39454 3.43101,-5.15067 5.59618,-10.21607 6.95898,-14.91796 z m -111.82226,0.42382 c 1.36713,4.5617 3.48338,9.44826 6.79101,14.41993 -6.09348,1.22102 -11.22433,3.2847 -15.52343,5.6582 -4.66998,-6.32223 -6.32147,-11.9399 -7.17578,-14.5625 2.50949,-1.3136 7.7911,-4.31526 15.9082,-5.51563 z m 128.84765,9.76563 a 77.432693,77.943932 0 0 1 4.02344,19.79687 c -2.62403,-2.54917 -6.04263,-5.51064 -10.46875,-8.21679 3.01005,-4.188 5.01218,-8.22414 6.44531,-11.58008 z m -146.57421,0.28711 c 1.41953,3.30789 3.40737,7.33294 6.42968,11.53125 -4.35904,2.73093 -7.70489,5.69132 -10.26367,8.21094 a 77.432693,77.943932 0 0 1 3.83399,-19.74219 z m 73.63086,4.29297 a 20.448635,20.448635 0 0 1 20.44726,20.44922 20.448635,20.448635 0 0 1 -20.44726,20.44726 20.448635,20.448635 0 0 1 -20.44922,-20.44726 20.448635,20.448635 0 0 1 20.44922,-20.44922 z m -33.96875,1.76367 c 6.78256,-0.0122 11.87838,1.17506 15.87304,2.89453 0.0815,0.2073 0.15971,0.42396 0.24219,0.62891 a 23.448635,23.448635 0 0 0 -5.50195,13.21484 c -0.20379,0.0865 -0.41427,0.1864 -0.61914,0.27539 -4.02676,-1.61329 -8.45042,-4.38074 -13.2168,-9.16406 -2.45716,-2.46591 -4.57744,-4.89017 -6.41992,-7.25977 2.97015,-0.37042 6.17294,-0.58368 9.64258,-0.58984 z m 67.7539,0.0684 c 3.48092,0.006 6.69364,0.22106 9.67188,0.59375 -1.83798,2.36163 -3.95186,4.77713 -6.40039,7.23437 -4.78772,4.80505 -9.22878,7.5729 -13.26953,9.18164 -0.14271,-0.0622 -0.28602,-0.12796 -0.42969,-0.19336 a 23.448635,23.448635 0 0 0 -5.58008,-13.47461 c 0.0605,-0.15851 0.12004,-0.31844 0.18164,-0.4746 3.98811,-1.70658 9.07352,-2.87917 15.82617,-2.86719 z m -80.91406,1.05664 c 1.93729,2.56874 4.20281,5.14515 6.85937,7.69531 4.70651,4.51797 9.03362,7.64574 12.98438,9.80274 -3.96349,2.15662 -8.30707,5.29129 -13.0332,9.82812 -2.64762,2.54157 -4.9049,5.10979 -6.83789,7.66992 -19.36948,-3.46507 -27.40767,-13.96476 -30.39258,-17.49609 2.98632,-3.53299 11.03069,-14.03993 30.41992,-17.5 z m 94.10156,0.0723 c 18.97598,3.39469 27.04196,13.50112 30.16992,17.23243 a 77.432693,77.943932 0 0 1 0.01,0.27929 77.432693,77.943932 0 0 1 -0.0117,0.25196 c -3.13129,3.73545 -11.20515,13.8438 -30.19727,17.23242 -1.93709,-2.56826 -4.20327,-5.14364 -6.85937,-7.69336 -4.70656,-4.51802 -9.03162,-7.64769 -12.98242,-9.80469 3.96349,-2.15662 8.30705,-5.29129 13.0332,-9.82812 2.64761,-2.54157 4.9049,-5.10979 6.83789,-7.66993 z m -70.94336,19.04493 c 0.20344,0.0887 0.41078,0.18533 0.61328,0.27148 a 23.448635,23.448635 0 0 0 5.4375,13.29102 c -0.0751,0.19004 -0.14757,0.38774 -0.22265,0.57812 -3.98811,1.70658 -9.07352,2.87917 -15.82617,2.86719 -3.48093,-0.006 -6.69364,-0.22106 -9.67188,-0.59375 1.83822,-2.36207 3.95139,-4.77861 6.40039,-7.23633 4.78707,-4.80439 9.22922,-7.56889 13.26953,-9.17773 z m 47.76172,0.0625 c 4.02676,1.61329 8.45237,4.37879 13.21875,9.16211 2.45723,2.46597 4.57545,4.89205 6.41797,7.26171 -2.97015,0.37043 -6.17294,0.58369 -9.64258,0.58985 -6.78256,0.0122 -11.87839,-1.17507 -15.87304,-2.89453 -0.0582,-0.14817 -0.11634,-0.2986 -0.17383,-0.44922 a 23.448635,23.448635 0 0 0 5.63281,-13.48438 c 0.14041,-0.063 0.28097,-0.12519 0.41992,-0.18554 z m -101.33789,3.16992 c 2.67068,2.63226 6.20852,5.75908 10.86328,8.60547 -3.17829,4.42234 -5.22914,8.66985 -6.67383,12.1289 a 77.432693,77.943932 0 0 1 -4.18945,-20.73437 z m 154.43555,0.54687 a 77.432693,77.943932 0 0 1 -3.62891,18.91407 c -1.40713,-3.22309 -3.35465,-7.08288 -6.24219,-11.09375 4.13121,-2.58831 7.36435,-5.38914 9.8711,-7.82032 z m -12.43555,9.33008 c 4.55221,6.16328 6.22054,11.60895 7.09375,14.31055 a 77.432693,77.943932 0 0 1 -0.13086,0.36133 c -2.57428,1.35606 -7.75977,4.23074 -15.69726,5.40429 -1.36742,-4.56168 -3.4829,-9.44816 -6.79102,-14.41992 6.09389,-1.22089 11.22602,-3.28276 15.52539,-5.65625 z m -128.59375,0.1875 c 4.19197,2.25842 9.14241,4.218 14.99609,5.39453 -3.44478,5.17157 -5.61311,10.2585 -6.97461,14.97656 -7.772,-1.16841 -12.91059,-3.97034 -15.36914,-5.2207 0.84565,-2.70334 2.4574,-8.56199 7.34766,-15.15039 z m 48.86719,2.90039 a 23.448635,23.448635 0 0 0 13.31055,5.59766 c 0.0741,0.16776 0.15201,0.33673 0.2246,0.5039 -1.61326,4.02687 -4.37862,8.4522 -9.1621,13.21875 -2.46592,2.45717 -4.89021,4.57748 -7.25977,6.41993 -0.37043,-2.9701 -0.58369,-6.17294 -0.58984,-9.64258 -0.0122,-6.78219 1.17326,-11.87849 2.89257,-15.87305 0.19271,-0.0757 0.39197,-0.14861 0.58399,-0.22461 z m 30.46094,0.10156 c 0.14848,0.0565 0.29728,0.1123 0.44335,0.16993 1.70669,3.98817 2.88112,9.07328 2.86915,15.82617 -0.006,3.48092 -0.22107,6.69368 -0.59375,9.67187 -2.36235,-1.83839 -4.77835,-3.95307 -7.23633,-6.40234 -4.80465,-4.78734 -7.56894,-9.22905 -9.17774,-13.26953 0.0708,-0.1624 0.14479,-0.32676 0.2168,-0.49024 a 23.448635,23.448635 0 0 0 13.47852,-5.50586 z m -34.53321,1.32227 c -1.27765,4.32757 -2.13176,9.61416 -2.26562,16.16406 -0.075,3.66891 0.14257,7.08294 0.58594,10.25977 -16.14554,11.24475 -29.25183,9.50355 -33.85938,9.11719 -0.38657,-4.60999 -2.12969,-17.7275 9.13477,-33.88477 3.18586,0.44637 6.60982,0.66702 10.29101,0.5918 6.52269,-0.13332 11.79444,-0.97967 16.11328,-2.24805 z m 38.45703,0.0508 c 4.32759,1.27767 9.61411,2.1298 16.16407,2.26367 3.6689,0.075 7.08294,-0.14263 10.25976,-0.58593 11.24609,16.14644 9.50552,29.25365 9.11914,33.86132 -4.6101,0.38658 -17.7286,2.12896 -33.88672,-9.13671 0.44614,-3.18532 0.66701,-6.60862 0.5918,-10.28907 -0.13331,-6.52269 -0.97966,-11.79444 -2.24805,-16.11328 z m -19.24023,7.93945 c 2.15662,3.96352 5.29322,8.30312 9.83008,13.0293 2.54157,2.64761 5.10982,4.90681 7.66992,6.83984 -3.46473,19.3704 -13.96465,27.40757 -17.49609,30.39258 -3.53324,-2.98653 -14.04265,-11.03009 -17.50196,-30.42187 2.56795,-1.93696 5.14591,-4.20164 7.69531,-6.85742 4.51798,-4.7065 7.64575,-9.03166 9.80274,-12.98243 z m 69.48242,6.72071 a 77.432693,77.943932 0 0 1 -11.27344,17.27734 c -0.035,-3.72319 -0.33578,-8.37329 -1.5957,-13.59765 5.15339,-0.84319 9.46364,-2.30568 12.86914,-3.67969 z M 313.716,244.52463 c 3.36251,1.3505 7.66087,2.82136 12.83789,3.66406 -1.18356,5.1558 -1.43926,9.72505 -1.45312,13.36524 A 77.432693,77.943932 0 0 1 313.716,244.52463 Z m 49.26563,14.55274 c 1.22082,6.09283 3.28301,11.22452 5.65625,15.52343 -6.3212,4.66849 -11.93627,6.32155 -14.55859,7.17579 -1.3137,-2.50969 -4.31682,-7.79058 -5.51758,-15.90821 4.56131,-1.36766 9.44832,-3.483 14.41992,-6.79101 z m 40.625,0.0312 c 5.17144,3.44487 10.25708,5.6148 14.97461,6.97656 -1.16832,7.77169 -3.97042,12.91073 -5.2207,15.36914 -2.70325,-0.8456 -8.56031,-2.4575 -15.14844,-7.34766 2.25873,-4.19254 4.21815,-9.1432 5.39453,-14.99804 z m -57.87109,7.52539 c 0.91308,5.57887 2.5515,10.17313 4.01757,13.6914 a 77.432693,77.943932 0 0 1 -18.08007,-12.08984 c 3.79427,-0.014 8.61821,-0.28819 14.0625,-1.60156 z m 75.72656,0.19922 c 5.01211,1.15102 9.47188,1.42517 13.0625,1.45312 a 77.432693,77.943932 0 0 1 -16.78125,11.51758 c 1.36584,-3.38083 2.86448,-7.7251 3.71875,-12.9707 z m -24.70899,9.8164 c 4.53876,3.26223 8.89587,5.3384 12.40039,6.78711 a 77.432693,77.943932 0 0 1 -21.37109,4.44727 c 2.70261,-2.7075 5.99246,-6.36377 8.9707,-11.23438 z m -26.60546,0.51758 c 2.87464,4.58774 6.00416,8.05674 8.60351,10.66016 a 77.432693,77.943932 0 0 1 -20.59961,-4.03321 c 3.38912,-1.42925 7.59886,-3.46127 11.9961,-6.62695 z"
       id="circle4220"
       inkscape:connector-curvature="0" />
    <path
       inkscape:connector-curvature="0"
       style="opacity:1;fill:none;fill-opacity:1;stroke:#000000;stroke-width:0.1;stroke-miterlimit:4;stroke-dasharray:none;stroke-opacity:1"
       d="M 383.34686,89.946407 A 120.1204,120.1204 0 0 0 263.22577,210.0675 120.1204,120.1204 0 0 0 383.34686,330.18664 120.1204,120.1204 0 0 0 503.466,210.0675 120.1204,120.1204 0 0 0 383.34686,89.946407 Z m 0,2.75 A 117.3704,117.3704 0 0 1 500.716,210.0675 117.3704,117.3704 0 0 1 383.34686,327.43664 117.3704,117.3704 0 0 1 265.97577,210.0675 117.3704,117.3704 0 0 1 383.34686,92.696407 Z"
       id="path4146" />
  </g>
</svg>
